<svg width="110" height="110" viewBox="0 0 110 110" fill="none" xmlns="http://www.w3.org/2000/svg">
<path d="M55 0C24.6714 0 0 24.6714 0 55C0 85.3286 24.6714 110 55 110C85.3286 110 110 85.3286 110 55C110 24.6714 85.3286 0 55 0ZM77.8653 26.5823L85.5555 18.8921C87.0926 17.3551 89.5725 17.3551 91.1095 18.8921C92.6466 20.4292 92.6466 22.9091 91.1095 24.4462L83.4194 32.1363C82.6533 32.9024 81.6466 33.2855 80.64 33.2855C79.6333 33.2855 78.6265 32.9024 77.8605 32.1363C76.3234 30.5993 76.3234 28.1194 77.8605 26.5823H77.8653ZM51.0735 7.85714C51.0735 5.68658 52.8315 3.92857 55.0021 3.92857C57.1727 3.92857 58.9307 5.68658 58.9307 7.85714V18.7346C58.9307 20.9051 57.1727 22.6631 55.0021 22.6631C52.8315 22.6631 51.0735 20.9051 51.0735 18.7346V7.85714ZM7.85924 58.9286C5.68868 58.9286 3.93067 57.1706 3.93067 55C3.93067 52.8294 5.68868 51.0714 7.85924 51.0714H18.7367C20.9072 51.0714 22.6652 52.8294 22.6652 55C22.6652 57.1706 20.9072 58.9286 18.7367 58.9286H7.85924ZM32.1368 83.4177L24.4466 91.1079C23.6805 91.8739 22.6738 92.257 21.6672 92.257C20.6605 92.257 19.6538 91.874 18.8877 91.1079C17.3507 89.5708 17.3507 87.0909 18.8877 85.5538L26.5779 77.8637C28.115 76.3266 30.5949 76.3266 32.1319 77.8637C33.669 79.4007 33.669 81.8806 32.1319 83.4177H32.1368ZM32.1368 32.1305C31.3707 32.8965 30.364 33.2796 29.3573 33.2796C28.3506 33.2796 27.3439 32.8966 26.5779 32.1305L18.8877 24.4403C17.3507 22.9033 17.3507 20.4233 18.8877 18.8863C20.4248 17.3492 22.9047 17.3492 24.4418 18.8863L32.1319 26.5764C33.669 28.1135 33.669 30.5934 32.1319 32.1305H32.1368ZM58.9286 102.139C58.9286 104.309 57.1706 106.067 55 106.067C52.8294 106.067 51.0714 104.309 51.0714 102.139V91.2612C51.0714 89.0907 52.8294 87.3327 55 87.3327C57.1706 87.3327 58.9286 89.0907 58.9286 91.2612V102.139ZM73.4936 73.4894C72.7276 74.2555 71.7208 74.6386 70.7142 74.6386C69.7075 74.6386 68.7008 74.2555 67.9347 73.4894L52.2205 57.7751C51.4839 57.0385 51.0713 56.0367 51.0713 54.9957V35.3528C51.0713 33.1823 52.8293 31.4243 54.9999 31.4243C57.1705 31.4243 58.9285 33.1823 58.9285 35.3528V53.3698L73.4935 67.9348C75.0306 69.4719 75.0306 71.9518 73.4935 73.4889L73.4936 73.4894ZM91.1135 91.1093C90.3475 91.8754 89.3407 92.2585 88.3341 92.2585C87.3274 92.2585 86.3207 91.8754 85.5547 91.1093L77.8645 83.4192C76.3274 81.8821 76.3274 79.4022 77.8645 77.8651C79.4016 76.3281 81.8815 76.3281 83.4186 77.8651L91.1087 85.5553C92.6458 87.0923 92.6458 89.5723 91.1087 91.1093H91.1135ZM102.143 58.9244H91.2654C89.0949 58.9244 87.3369 57.1664 87.3369 54.9958C87.3369 52.8253 89.0949 51.0672 91.2654 51.0672H102.143C104.313 51.0672 106.071 52.8253 106.071 54.9958C106.071 57.1664 104.313 58.9244 102.143 58.9244Z" fill="white"/>
</svg>
