<svg width="124" height="124" viewBox="0 0 124 124" fill="none" xmlns="http://www.w3.org/2000/svg">
<path d="M69.9787 16.5314C66.7043 16.5217 63.4058 16.9431 60.1652 17.815C58.344 18.2994 57.2687 20.1691 57.753 21.9903C58.2422 23.8067 60.1119 24.8868 61.9283 24.3977C72.5603 21.5496 83.8897 24.5866 91.6738 32.3656C99.4577 40.1495 102.495 51.4792 99.6417 62.1111L99.6466 62.116C99.1574 63.9324 100.238 65.8021 102.054 66.2913C103.875 66.7756 105.745 65.7003 106.229 63.879C109.707 50.9076 105.997 37.0496 96.4981 27.5512C89.373 20.426 79.7964 16.5555 69.9787 16.5317L69.9787 16.5314ZM34.4351 19.3117C34.2898 19.3214 34.1445 19.3359 33.9992 19.3601C30.6182 19.9269 25.5032 21.719 19.8208 26.9746C17.8882 28.7716 16.4157 32.5546 16.4932 35.1944C17.0696 54.4909 24.7033 72.5494 38.0578 85.8991C51.4126 99.2539 69.4691 106.887 88.7676 107.464C91.4074 107.541 95.1855 106.069 96.9826 104.131C102.238 98.4543 104.03 93.3391 104.597 89.958C104.98 87.6766 103.207 84.6734 101.327 83.3172L86.3555 72.5498C84.9363 71.5326 82.9891 71.6876 81.7539 72.9228L71.2625 83.4142H71.2577C70.5456 84.1311 69.2039 84.4024 68.2836 83.9713C65.1061 82.4793 57.952 78.7013 51.6067 72.3556C45.2565 66.0054 41.4783 58.8509 39.9868 55.6693C39.5606 54.7538 39.827 53.4121 40.5439 52.6953L51.0353 42.2038C52.2704 40.9687 52.4254 39.0215 51.4083 37.6023L40.6409 22.6355C39.3719 20.8676 36.6497 19.2013 34.4361 19.3176L34.4351 19.3117ZM68.9464 31.8863C66.9217 31.8815 64.8825 32.1431 62.8772 32.6759L62.882 32.6807C61.0657 33.1699 59.9855 35.0396 60.4698 36.856C60.9591 38.6724 62.8287 39.7525 64.6451 39.2682C70.322 37.7472 76.3673 39.3651 80.5181 43.521C84.6741 47.677 86.2919 53.722 84.7709 59.3992H84.7758C84.2914 61.2156 85.3667 63.0853 87.188 63.5745C89.0044 64.0589 90.8741 62.9787 91.3633 61.1623C93.5139 53.141 91.218 44.5721 85.3473 38.7017C80.9444 34.2988 75.0204 31.9059 68.9504 31.8914L68.9464 31.8863Z" fill="black"/>
</svg>
