<svg width="186" height="34" viewBox="0 0 186 34" fill="none" xmlns="http://www.w3.org/2000/svg">
<g clip-path="url(#clip0_127_35208)">
<path d="M11.8514 10.781L16.0594 11.8465C17.8981 12.312 19.2313 12.9355 20.0575 13.7153C21.337 14.927 21.7333 16.6798 21.2446 18.9739C20.7442 21.3267 19.4295 23.2812 17.2986 24.8357C15.1694 26.3903 12.4626 27.1684 9.18157 27.1684C5.9005 27.1684 3.35658 26.4021 1.76306 24.871C0.166189 23.34 -0.344275 21.2342 0.224959 18.5554H5.35814C5.27586 19.7318 5.41019 20.6107 5.75945 21.1939C6.41097 22.2544 7.79627 22.7837 9.91368 22.7837C11.1814 22.7837 12.241 22.6443 13.0906 22.3636C14.7077 21.8275 15.6681 20.8326 15.9704 19.3755C16.1568 18.5251 15.9234 17.868 15.2719 17.4008C14.6321 16.9471 13.5491 16.5454 12.0244 16.1958L9.42337 15.5841C6.87441 14.9791 5.16335 14.3203 4.29019 13.6094C2.81254 12.4212 2.34069 10.5642 2.87634 8.03658C3.36498 5.73081 4.61091 3.81494 6.61246 2.28896C8.6157 0.762987 11.2402 0 14.4877 0C17.1995 0 19.3589 0.719292 20.9642 2.15788C22.5695 3.59646 23.1286 5.68543 22.64 8.42143H17.4732C17.7184 6.87193 17.2818 5.77114 16.1635 5.11907C15.418 4.68884 14.4239 4.47205 13.178 4.47205C11.7927 4.47205 10.6256 4.75103 9.6786 5.31066C8.72988 5.8703 8.15057 6.65009 7.94235 7.65172C7.74421 8.57269 8.00616 9.25837 8.7282 9.71381C9.18157 10.0163 10.2226 10.3726 11.8531 10.7793L11.8514 10.781ZM31.9979 8.31724C33.2774 7.46686 34.6795 7.04167 36.2059 7.04167C38.4291 7.04167 40.1368 7.86348 41.329 9.50541C42.5212 11.1473 42.7798 13.559 42.1064 16.7387C41.3962 20.0931 40.1015 22.651 38.2226 24.4089C36.3436 26.1685 34.2161 27.0474 31.8418 27.0474C30.3288 27.0474 29.1534 26.6693 28.3155 25.9113C27.8504 25.4912 27.4424 24.8811 27.0931 24.0761L24.9807 34H20.0575L25.6961 7.46014H30.4615L29.8688 10.2734C30.579 9.44659 31.2876 8.79452 31.9979 8.31724ZM34.9314 21.2645C35.8852 20.1923 36.5484 18.7655 36.9212 16.984C37.2352 15.5169 37.1764 14.2178 36.7466 13.0884C36.315 11.9591 35.3495 11.3944 33.8484 11.3944C32.0449 11.3944 30.6244 12.2498 29.5883 13.9623C29.0527 14.8715 28.6346 16.0244 28.3307 17.421C27.8655 19.6343 28.1208 21.1889 29.098 22.0863C29.6908 22.6106 30.4649 22.8728 31.4203 22.8728C32.8056 22.8728 33.9743 22.3367 34.9297 21.2662L34.9314 21.2645ZM53.4021 22.2258C53.8085 21.9115 54.2115 21.4746 54.6061 20.9149H59.6855C59.3127 22.0443 58.4816 23.1921 57.1886 24.3568C55.1635 26.2088 52.6851 27.1348 49.7516 27.1348C47.3303 27.1348 45.3606 26.355 43.8427 24.7937C42.3247 23.2325 41.9368 20.6931 42.6824 17.1756C43.3809 13.88 44.7511 11.3524 46.793 9.5928C48.8348 7.83491 51.189 6.95428 53.8538 6.95428C55.4356 6.95428 56.8007 7.25174 57.9476 7.84499C59.0945 8.43824 59.9407 9.37769 60.4882 10.6583C61.0003 11.7877 61.2035 13.0985 61.0994 14.5892C61.0523 15.4631 60.8425 16.7202 60.4714 18.3638H47.4478C47.1103 20.2746 47.4243 21.6141 48.3898 22.3821C48.9708 22.8594 49.7449 23.098 50.7121 23.098C51.7364 23.098 52.6331 22.8073 53.4004 22.2241L53.4021 22.2258ZM52.9823 11.0616C51.8304 11.0616 50.8616 11.423 50.0757 12.1456C49.2899 12.8683 48.687 13.8464 48.2689 15.0816H56.0031C56.2013 13.7657 56.0115 12.7658 55.4356 12.0851C54.8596 11.4045 54.0419 11.0633 52.9823 11.0633V11.0616ZM70.5799 14.9236C71.5336 14.8077 72.2271 14.6615 72.657 14.4867C73.4244 14.1842 73.8794 13.7119 74.0188 13.0716C74.1817 12.2918 74.0238 11.7524 73.5469 11.4549C73.0701 11.1574 72.3077 11.0095 71.2599 11.0095C70.0845 11.0095 69.1879 11.3003 68.5716 11.8834C68.1401 12.3154 67.7858 12.8968 67.507 13.6313H62.7063C63.1714 11.9658 63.9287 10.5978 64.9765 9.52558C66.6523 7.84835 69.0905 7.00974 72.2909 7.00974C74.3748 7.00974 76.1379 7.42316 77.5803 8.25001C79.0227 9.07686 79.5012 10.6381 79.0126 12.9321L77.1454 21.6678C77.0178 22.2728 76.8767 23.0073 76.7256 23.8694C76.6215 24.5215 76.6232 24.9652 76.734 25.1971C76.8448 25.4307 77.0446 25.6223 77.3368 25.7735L77.1974 26.5079H71.7855C71.715 26.1231 71.6864 25.7634 71.6982 25.424C71.7099 25.0862 71.7452 24.7013 71.8023 24.2711C70.9526 25.0173 70.0274 25.6508 69.0267 26.1752C67.816 26.792 66.5365 27.1012 65.1864 27.1012C63.4636 27.1012 62.1455 26.6088 61.232 25.6239C60.3186 24.6391 60.0532 23.2459 60.4378 21.4393C60.9382 19.0982 62.2009 17.4025 64.2259 16.3555C65.3308 15.7858 66.874 15.3774 68.852 15.132L70.5799 14.922V14.9236ZM70.6672 18.068L69.5153 18.2781C68.4205 18.4646 67.6178 18.6915 67.1057 18.9587C66.2443 19.4125 65.7154 20.1183 65.5172 21.0729C65.3308 21.9233 65.4333 22.5384 65.8228 22.9165C66.2124 23.2946 66.7447 23.4846 67.4197 23.4846C68.491 23.4846 69.5438 23.1703 70.5799 22.5417C71.6159 21.9132 72.3312 20.7654 72.7275 19.0999L73.112 17.2479C72.7628 17.4462 72.4135 17.6059 72.0642 17.7285C71.715 17.8512 71.2499 17.9638 70.6672 18.0697V18.068ZM85.2103 20.515L83.9527 26.5079H79.0646L84.5152 0.838614H89.4032L86.4529 14.7119L94.1686 7.54753H100.331L92.1268 14.8329L96.5782 26.5046H90.5736L87.7459 18.3621L85.2154 20.5116L85.2103 20.515ZM110.037 10.7827L114.245 11.8482C116.083 12.3137 117.417 12.9372 118.243 13.717C119.522 14.9287 119.918 16.6815 119.43 18.9755C118.929 21.3284 117.615 23.2829 115.484 24.8374C113.353 26.392 110.648 27.1701 107.367 27.1701C104.086 27.1701 101.542 26.4037 99.9483 24.8727C98.3531 23.3417 97.841 21.2359 98.4119 18.5571H103.545C103.463 19.7335 103.597 20.6124 103.946 21.1956C104.598 22.256 105.983 22.7854 108.101 22.7854C109.368 22.7854 110.428 22.6459 111.278 22.3653C112.895 21.8292 113.855 20.8343 114.157 19.3772C114.344 18.5268 114.11 17.8697 113.459 17.4025C112.819 16.9487 111.736 16.5471 110.211 16.1975L107.61 15.5858C105.061 14.9808 103.35 14.322 102.477 13.6111C100.999 12.4229 100.528 10.5659 101.063 8.03826C101.552 5.73249 102.798 3.81662 104.799 2.29064C106.801 0.764668 109.425 0.00168059 112.673 0.00168059C115.385 0.00168059 117.544 0.720973 119.149 2.15956C120.755 3.59814 121.314 5.68711 120.825 8.42311H115.658C115.904 6.87361 115.467 5.77282 114.349 5.12076C113.603 4.69052 112.609 4.47373 111.363 4.47373C109.978 4.47373 108.811 4.75271 107.864 5.31234C106.915 5.87198 106.336 6.65177 106.128 7.6534C105.929 8.57437 106.191 9.26005 106.913 9.71549C107.367 10.018 108.408 10.3743 110.038 10.781L110.037 10.7827ZM130.183 8.31892C131.463 7.46854 132.865 7.04335 134.391 7.04335C136.614 7.04335 138.322 7.86516 139.514 9.50709C140.706 11.149 140.965 13.5607 140.292 16.7403C139.581 20.0948 138.287 22.6527 136.408 24.4106C134.529 26.1701 132.401 27.0491 130.027 27.0491C128.514 27.0491 127.339 26.671 126.501 25.913C126.036 25.4929 125.628 24.8828 125.278 24.0778L123.166 34.0017H118.243L123.881 7.46182H128.647L128.054 10.2751C128.764 9.44827 129.473 8.7962 130.183 8.31892ZM133.117 21.2662C134.07 20.194 134.734 18.7671 135.106 16.9857C135.42 15.5186 135.362 14.2195 134.932 13.0901C134.5 11.9608 133.535 11.3961 132.034 11.3961C130.23 11.3961 128.81 12.2515 127.774 13.964C127.238 14.8732 126.82 16.0261 126.516 17.4227C126.051 19.636 126.306 21.1905 127.283 22.088C127.876 22.6123 128.65 22.8745 129.606 22.8745C130.991 22.8745 132.16 22.3384 133.115 21.2679L133.117 21.2662ZM159.793 9.87514C160.969 11.8902 161.266 14.2732 160.683 17.021C160.091 19.8158 158.777 22.2073 156.747 24.1938C154.716 26.1802 152.066 27.1734 148.795 27.1734C145.524 27.1734 143.299 26.1802 142.117 24.1938C140.935 22.2073 140.641 19.8175 141.235 17.021C141.816 14.2716 143.126 11.8902 145.163 9.87514C147.2 7.86012 149.853 6.85176 153.124 6.85176C156.395 6.85176 158.616 7.86012 159.792 9.87514H159.793ZM152.2 11.0633C150.744 11.0633 149.517 11.5793 148.516 12.6095C147.515 13.6397 146.812 15.1119 146.404 17.021C145.996 18.9318 146.075 20.4057 146.639 21.441C147.203 22.4779 148.212 22.9955 149.668 22.9955C151.124 22.9955 152.35 22.4779 153.352 21.441C154.353 20.404 155.056 18.9318 155.465 17.021C155.871 15.1102 155.794 13.6397 155.229 12.6095C154.665 11.5793 153.654 11.0633 152.2 11.0633ZM175.524 7.00974C175.582 7.0215 175.715 7.03327 175.925 7.04503L174.842 12.1473C174.54 12.112 174.266 12.0885 174.021 12.0767C173.776 12.0649 173.578 12.0599 173.428 12.0599C171.427 12.0599 169.942 12.712 168.977 14.0161C168.441 14.7505 168.011 15.8799 167.685 17.4059L165.764 26.5096H160.754L164.787 7.46518H169.536L168.837 10.7843C169.873 9.5155 170.723 8.64663 171.386 8.18111C172.491 7.40131 173.789 7.00974 175.279 7.00974H175.524ZM180.012 21.2494C179.849 22.0292 179.846 22.5165 180.004 22.7081C180.162 22.8997 180.746 22.9972 181.758 22.9972C181.91 22.9972 182.069 22.9938 182.239 22.9888C182.407 22.9837 182.58 22.9737 182.754 22.9619L181.952 26.6827L179.577 26.7701C177.215 26.8508 175.695 26.4441 175.022 25.5466C174.59 24.9769 174.498 24.0963 174.743 22.9081L177.24 11.1843H174.587L175.337 7.63828H177.99L179.125 2.32594H184.049L182.914 7.63828H186.003L185.253 11.1843H182.163L180.015 21.2477L180.012 21.2494Z" fill="white"/>
</g>
<defs>
<clipPath id="clip0_127_35208">
<rect width="186" height="34" fill="white"/>
</clipPath>
</defs>
</svg>
