<svg width="274" height="50" viewBox="0 0 274 50" fill="none" xmlns="http://www.w3.org/2000/svg">
<path d="M17.4586 15.8544L23.6574 17.4213C26.366 18.1059 28.33 19.0228 29.547 20.1695C31.4319 21.9515 32.0157 24.5292 31.2958 27.9027C30.5587 31.3628 28.6219 34.2371 25.4829 36.5232C22.3464 38.8093 18.3589 39.9535 13.5255 39.9535C8.69214 39.9535 4.94464 38.8266 2.5972 36.5751C0.244815 34.3236 -0.507157 31.2268 0.331391 27.2873H7.89317C7.77196 29.0174 7.96985 30.3099 8.48436 31.1675C9.44411 32.727 11.4848 33.5055 14.604 33.5055C16.4716 33.5055 18.0324 33.3004 19.2841 32.8877C21.6661 32.0993 23.081 30.6362 23.5263 28.4934C23.8009 27.2428 23.457 26.2765 22.4973 25.5894C21.5548 24.9222 19.9594 24.3315 17.7133 23.8174L13.8817 22.9178C10.1268 22.0281 7.60623 21.0593 6.31996 20.0138C4.1432 18.2665 3.44812 15.5356 4.2372 11.8185C4.95701 8.42766 6.79242 5.6102 9.74094 3.36612C12.6919 1.12204 16.5582 0 21.3421 0C25.337 0 28.518 1.05778 30.8827 3.17335C33.2475 5.28891 34.0712 8.36093 33.3514 12.3845H25.7401C26.1013 10.1058 25.4582 8.48698 23.8107 7.52805C22.7125 6.89536 21.2481 6.57654 19.4127 6.57654C17.372 6.57654 15.6528 6.9868 14.2577 7.8098C12.8601 8.63279 12.0068 9.77955 11.7 11.2525C11.4081 12.6069 11.794 13.6152 12.8577 14.285C13.5255 14.7299 15.0592 15.2538 17.461 15.8519L17.4586 15.8544ZM47.1367 12.2312C49.0216 10.9807 51.0871 10.3554 53.3356 10.3554C56.6106 10.3554 59.1262 11.5639 60.8825 13.9785C62.6387 16.3932 63.0197 19.9397 62.0278 24.6157C60.9814 29.5487 59.0743 33.3103 56.3063 35.8954C53.5384 38.483 50.4044 39.7756 46.9067 39.7756C44.678 39.7756 42.9465 39.2195 41.7121 38.1049C41.027 37.487 40.4259 36.5899 39.9114 35.4061L36.7996 50H29.547L37.8533 10.9708H44.8734L44.0002 15.108C45.0466 13.892 46.0904 12.9331 47.1367 12.2312ZM51.4581 31.2713C52.8631 29.6945 53.8402 27.5963 54.3893 24.9765C54.8519 22.8189 54.7653 20.9085 54.1321 19.2477C53.4963 17.5869 52.074 16.7565 49.8626 16.7565C47.206 16.7565 45.1133 18.0144 43.5871 20.5328C42.7981 21.8699 42.1821 23.5653 41.7344 25.6191C41.0492 28.874 41.4252 31.1601 42.8648 32.4799C43.738 33.251 44.8783 33.6365 46.2858 33.6365C48.3265 33.6365 50.0482 32.8481 51.4556 31.2738L51.4581 31.2713ZM78.6676 32.685C79.2663 32.2228 79.8599 31.5802 80.4412 30.7573H87.9238C87.3747 32.4181 86.1503 34.1061 84.2456 35.8188C81.2624 38.5423 77.6114 39.9041 73.29 39.9041C69.7231 39.9041 66.8216 38.7574 64.5855 36.4614C62.3493 34.1654 61.7779 30.431 62.8762 25.2583C63.9052 20.4117 65.9237 16.6947 68.9316 14.1071C71.9395 11.5219 75.4074 10.2269 79.333 10.2269C81.6632 10.2269 83.6742 10.6643 85.3637 11.5368C87.0531 12.4092 88.2998 13.7907 89.1062 15.674C89.8607 17.3348 90.16 19.2625 90.0066 21.4547C89.9373 22.7399 89.6281 24.5885 89.0815 27.0056H69.8963C69.3991 29.8156 69.8616 31.7854 71.284 32.9148C72.1398 33.6167 73.2802 33.9677 74.7049 33.9677C76.2138 33.9677 77.5347 33.5401 78.6652 32.6825L78.6676 32.685ZM78.0492 16.2671C76.3524 16.2671 74.9251 16.7985 73.7674 17.8612C72.6098 18.9239 71.7218 20.3623 71.1059 22.1788H82.4992C82.7911 20.2437 82.5116 18.7732 81.6632 17.7722C80.8147 16.7713 79.6101 16.2696 78.0492 16.2696V16.2671ZM103.973 21.9465C105.378 21.776 106.399 21.561 107.032 21.3039C108.163 20.8591 108.833 20.1646 109.038 19.223C109.278 18.0762 109.046 17.2829 108.343 16.8454C107.641 16.408 106.518 16.1905 104.974 16.1905C103.243 16.1905 101.922 16.6181 101.014 17.4757C100.378 18.1108 99.8564 18.9659 99.4458 20.046H92.3738C93.059 17.5968 94.1746 15.585 95.7181 14.0082C98.1868 11.5417 101.778 10.3084 106.493 10.3084C109.563 10.3084 112.16 10.9164 114.285 12.1324C116.41 13.3483 117.115 15.6443 116.395 19.0178L113.644 31.8645C113.456 32.7542 113.248 33.8342 113.026 35.1021C112.872 36.061 112.875 36.7135 113.038 37.0545C113.201 37.3981 113.496 37.6798 113.926 37.9022L113.721 38.9823H105.749C105.645 38.4163 105.603 37.8874 105.62 37.3882C105.637 36.8914 105.689 36.3254 105.773 35.6928C104.522 36.7901 103.159 37.7218 101.684 38.4929C99.901 39.3999 98.0161 39.8547 96.0273 39.8547C93.4894 39.8547 91.5476 39.1305 90.202 37.6823C88.8564 36.234 88.4655 34.1852 89.032 31.5284C89.7691 28.0856 91.6293 25.5919 94.6124 24.0522C96.2401 23.2144 98.5133 22.6138 101.427 22.253L103.973 21.944V21.9465ZM104.101 26.5706L102.404 26.8795C100.791 27.1539 99.6091 27.4875 98.8546 27.8805C97.5857 28.5478 96.8065 29.5858 96.5146 30.9896C96.2401 32.2401 96.3909 33.1447 96.9648 33.7008C97.5387 34.2568 98.3228 34.5361 99.3172 34.5361C100.895 34.5361 102.446 34.0739 103.973 33.1496C105.499 32.2253 106.552 30.5373 107.136 28.0881L107.703 25.3645C107.188 25.6562 106.674 25.891 106.159 26.0714C105.645 26.2518 104.959 26.4174 104.101 26.5731V26.5706ZM125.525 30.1691L123.672 38.9823H116.472L124.501 1.23326H131.701L127.355 21.6351L138.722 11.0993H147.8L135.714 21.8131L142.271 38.9773H133.426L129.26 27.0031L125.532 30.1641L125.525 30.1691ZM162.097 15.8569L168.296 17.4238C171.004 18.1084 172.968 19.0253 174.185 20.172C176.07 21.9539 176.654 24.5317 175.934 27.9052C175.197 31.3652 173.26 34.2395 170.121 36.5256C166.982 38.8117 162.997 39.956 158.164 39.956C153.331 39.956 149.583 38.829 147.236 36.5775C144.886 34.326 144.131 31.2293 144.972 27.2898H152.534C152.413 29.0198 152.611 30.3124 153.125 31.17C154.085 32.7295 156.126 33.508 159.245 33.508C161.113 33.508 162.673 33.3029 163.925 32.8901C166.307 32.1017 167.722 30.6386 168.167 28.4959C168.442 27.2453 168.098 26.279 167.138 25.5919C166.196 24.9246 164.6 24.3339 162.354 23.8199L158.523 22.9203C154.768 22.0305 152.247 21.0617 150.961 20.0163C148.784 18.269 148.089 15.538 148.878 11.821C149.598 8.43013 151.433 5.61267 154.382 3.36859C157.33 1.12451 161.197 0.00247145 165.981 0.00247145C169.975 0.00247145 173.156 1.06025 175.521 3.17582C177.886 5.29139 178.71 8.3634 177.99 12.3869H170.379C170.74 10.1083 170.097 8.48945 168.449 7.53052C167.351 6.89783 165.887 6.57901 164.051 6.57901C162.01 6.57901 160.291 6.98927 158.896 7.81227C157.499 8.63526 156.645 9.78202 156.338 11.255C156.047 12.6094 156.432 13.6177 157.496 14.2875C158.164 14.7323 159.698 15.2563 162.099 15.8544L162.097 15.8569ZM191.775 12.2337C193.66 10.9831 195.726 10.3579 197.974 10.3579C201.249 10.3579 203.765 11.5664 205.521 13.981C207.277 16.3956 207.658 19.9422 206.666 24.6182C205.62 29.5512 203.713 33.3127 200.945 35.8979C198.177 38.4855 195.043 39.7781 191.545 39.7781C189.316 39.7781 187.585 39.222 186.351 38.1074C185.665 37.4895 185.064 36.5924 184.55 35.4085L181.438 50.0025H174.185L182.492 10.9733H189.512L188.639 15.1105C189.685 13.8945 190.729 12.9356 191.775 12.2337ZM196.097 31.2738C197.502 29.697 198.479 27.5987 199.028 24.979C199.49 22.8214 199.404 20.911 198.771 19.2502C198.135 17.5893 196.712 16.7589 194.501 16.7589C191.844 16.7589 189.752 18.0169 188.226 20.5353C187.437 21.8724 186.821 23.5678 186.373 25.6216C185.688 28.8765 186.064 31.1626 187.503 32.4823C188.376 33.2534 189.517 33.639 190.924 33.639C192.965 33.639 194.687 32.8506 196.094 31.2763L196.097 31.2738ZM235.395 14.5223C237.126 17.4855 237.564 20.9901 236.706 25.0309C235.832 29.1409 233.898 32.6578 230.907 35.5791C227.914 38.5003 224.011 39.961 219.193 39.961C214.374 39.961 211.096 38.5003 209.355 35.5791C207.614 32.6578 207.181 29.1434 208.056 25.0309C208.912 20.9876 210.842 17.4855 213.842 14.5223C216.843 11.559 220.751 10.0761 225.569 10.0761C230.388 10.0761 233.661 11.559 235.392 14.5223H235.395ZM224.209 16.2696C222.064 16.2696 220.256 17.0283 218.782 18.5433C217.308 20.0583 216.271 22.2233 215.67 25.0309C215.069 27.8409 215.185 30.0084 216.016 31.5308C216.848 33.0557 218.334 33.8169 220.479 33.8169C222.623 33.8169 224.429 33.0557 225.906 31.5308C227.38 30.0059 228.417 27.8409 229.018 25.0309C229.616 22.2208 229.502 20.0583 228.671 18.5433C227.84 17.0283 226.351 16.2696 224.209 16.2696ZM258.567 10.3084C258.654 10.3257 258.849 10.343 259.158 10.3603L257.563 17.8637C257.118 17.8118 256.714 17.7772 256.353 17.7599C255.992 17.7426 255.7 17.7352 255.48 17.7352C252.532 17.7352 250.345 18.6941 248.923 20.6119C248.134 21.692 247.5 23.3528 247.02 25.5969L244.191 38.9847H236.809L242.751 10.9782H249.746L248.717 15.8593C250.244 13.9934 251.495 12.7156 252.472 12.031C254.1 10.8843 256.012 10.3084 258.206 10.3084H258.567ZM265.179 31.2491C264.939 32.3958 264.934 33.1126 265.167 33.3943C265.399 33.676 266.26 33.8194 267.752 33.8194C267.974 33.8194 268.209 33.8144 268.459 33.807C268.706 33.7996 268.961 33.7848 269.218 33.7675L268.036 39.2393L264.538 39.3678C261.058 39.4864 258.819 38.8883 257.828 37.5686C257.192 36.7308 257.056 35.4357 257.417 33.6884L261.095 16.4475H257.187L258.293 11.2328H262.201L263.873 3.42049H271.126L269.453 11.2328H274.005L272.899 16.4475H268.348L265.184 31.2466L265.179 31.2491Z" fill="url(#paint0_linear_127_35193)"/>
<defs>
<linearGradient id="paint0_linear_127_35193" x1="-7.04218e-05" y1="25.0012" x2="274" y2="25.0012" gradientUnits="userSpaceOnUse">
<stop stop-color="#038936"/>
<stop offset="1" stop-color="#055249"/>
</linearGradient>
</defs>
</svg>
