<svg width="24" height="20" viewBox="0 0 24 20" fill="none" xmlns="http://www.w3.org/2000/svg">
<path d="M1.20892 20C0.777012 20 0.377919 19.7696 0.161974 19.3955C-0.0539913 19.0215 -0.0539913 18.5607 0.161974 18.1866C0.377939 17.8126 0.777012 17.5822 1.20892 17.5822H22.3561C22.788 17.5822 23.1871 17.8126 23.4031 18.1866C23.619 18.5607 23.619 19.0215 23.4031 19.3955C23.1871 19.7696 22.788 20 22.3561 20H1.20892ZM1.20892 11.2089C0.777012 11.2089 0.377919 10.9785 0.161974 10.6045C-0.0539913 10.2304 -0.0539913 9.76955 0.161974 9.39553C0.377939 9.02152 0.777012 8.79107 1.20892 8.79107H22.3561C22.788 8.79107 23.1871 9.02152 23.4031 9.39553C23.619 9.76955 23.619 10.2304 23.4031 10.6045C23.1871 10.9785 22.788 11.2089 22.3561 11.2089H1.20892ZM1.20892 2.41786V2.41778C0.777012 2.41778 0.377919 2.18742 0.161974 1.8134C-0.0539913 1.43932 -0.0539913 0.978484 0.161974 0.604466C0.377939 0.230388 0.777012 0 1.20892 0H22.3561C22.788 0 23.1871 0.230368 23.4031 0.604466C23.619 0.978484 23.619 1.4393 23.4031 1.8134C23.1871 2.18742 22.788 2.41778 22.3561 2.41778L1.20892 2.41786Z" fill="white"/>
</svg>
